<?xml version="1.0" standalone="no"?>
<!DOCTYPE svg PUBLIC "-//W3C//DTD SVG 20010904//EN"
 "http://www.w3.org/TR/2001/REC-SVG-20010904/DTD/svg10.dtd">
<svg version="1.0" xmlns="http://www.w3.org/2000/svg"
 width="1162.000000pt" height="1162.000000pt" viewBox="0 0 1162.000000 1162.000000"
 preserveAspectRatio="xMidYMid meet">
<metadata>
Created by potrace 1.11, written by Peter Selinger 2001-2013
</metadata>
<g transform="translate(0.000000,1162.000000) scale(0.100000,-0.100000)"
fill="#000000" stroke="none">
<path d="M2119 9517 c-2 -3 -44 -7 -94 -11 -49 -4 -106 -8 -125 -11 -19 -2
-57 -7 -85 -10 -27 -4 -66 -10 -85 -15 -19 -5 -48 -11 -65 -13 -199 -32 -507
-146 -713 -264 -51 -29 -164 -103 -172 -112 -3 -4 -23 -19 -45 -35 -75 -55
-270 -261 -331 -351 -148 -217 -255 -470 -299 -705 -3 -14 -7 -36 -10 -50 -3
-14 -8 -45 -11 -69 -3 -25 -7 -48 -9 -51 -6 -10 -19 -234 -19 -335 0 -187 15
-337 50 -494 115 -516 474 -927 1049 -1200 155 -74 589 -250 770 -313 17 -5
39 -14 50 -18 11 -5 79 -30 150 -55 295 -107 620 -238 739 -297 513 -257 766
-592 811 -1073 7 -65 7 -314 1 -355 -1 -14 -6 -54 -10 -90 -18 -151 -81 -363
-144 -480 -45 -83 -136 -201 -207 -269 -71 -67 -196 -155 -290 -203 -114 -58
-333 -128 -453 -144 -26 -3 -56 -8 -67 -10 -118 -25 -621 -24 -697 1 -7 2 -31
6 -53 9 -35 4 -105 19 -215 45 -74 18 -169 55 -265 103 -322 160 -563 440
-729 845 -60 147 -128 384 -151 528 -22 132 -36 231 -41 280 -3 33 -7 66 -9
73 -3 9 -47 12 -174 12 l-169 0 3 -103 c2 -56 6 -194 10 -307 4 -113 8 -250
10 -305 9 -273 17 -528 20 -595 2 -61 8 -245 19 -583 1 -23 7 -42 16 -47 40
-21 403 -133 473 -145 17 -3 33 -8 37 -10 3 -2 17 -6 31 -9 13 -2 62 -13 109
-25 132 -32 429 -87 570 -106 14 -2 43 -6 65 -9 22 -3 63 -8 90 -11 28 -2 70
-7 95 -9 207 -22 708 -29 885 -13 125 12 335 41 375 52 8 2 31 7 50 10 183 30
474 130 664 228 356 182 628 451 795 786 109 216 169 432 198 701 10 95 10
411 0 510 -30 297 -105 523 -250 755 -181 291 -455 531 -817 718 -184 94 -590
266 -950 402 -640 241 -875 349 -1105 507 -292 201 -477 478 -521 778 -3 25
-10 70 -14 100 -11 77 -5 352 10 430 7 36 13 74 15 85 7 47 27 118 55 196 134
363 424 607 840 709 47 11 103 23 125 26 22 3 46 7 53 9 33 11 183 20 337 20
176 0 270 -6 365 -25 30 -6 71 -13 90 -16 19 -3 72 -17 118 -30 293 -85 521
-255 700 -520 120 -180 236 -468 276 -689 32 -171 53 -330 55 -402 1 -23 1
-23 174 -23 l173 0 -2 53 c-1 28 -5 144 -9 257 -3 113 -8 259 -10 325 -3 66
-7 203 -10 305 -3 102 -8 232 -10 290 -2 58 -7 202 -11 320 -3 118 -8 218 -10
222 -4 7 -161 57 -349 112 -216 63 -552 135 -745 161 -28 3 -112 15 -150 20
-14 2 -61 7 -105 11 -44 3 -89 8 -100 11 -26 5 -610 15 -616 10z"/>
<path d="M5389 9328 c0 -13 -2 -101 -2 -195 l-2 -173 490 -2 489 -3 1 -3157 0
-3158 -487 0 c-458 0 -488 -1 -489 -17 0 -10 -2 -96 -2 -190 l-2 -173 25 0
c36 -1 2902 -1 2920 0 13 0 15 20 13 127 -1 71 -2 156 -3 190 l0 63 -512 2
-512 3 -1 1548 c0 852 3 1553 6 1559 7 11 1145 6 1189 -5 13 -4 42 -9 65 -12
466 -67 694 -353 830 -1040 14 -71 28 -143 30 -160 2 -16 6 -46 9 -65 28 -174
41 -255 52 -335 4 -27 9 -57 10 -65 2 -8 6 -42 9 -75 4 -33 8 -62 10 -65 1 -3
6 -32 9 -65 9 -79 17 -146 22 -169 2 -10 6 -44 9 -75 4 -31 8 -63 10 -71 2 -8
7 -42 10 -75 3 -33 8 -67 10 -75 2 -8 7 -35 10 -60 32 -232 77 -443 119 -553
135 -358 363 -521 816 -582 72 -10 598 -13 681 -5 139 15 204 22 224 26 11 2
47 9 80 14 33 6 67 13 76 16 14 4 16 28 17 190 l0 186 -42 -7 c-22 -4 -111 -9
-196 -11 -119 -3 -171 0 -225 12 -272 63 -415 275 -524 774 -5 25 -12 63 -15
85 -4 23 -8 52 -11 65 -3 14 -21 120 -40 235 -19 116 -37 221 -39 235 -3 14
-12 68 -21 120 -24 145 -24 144 -56 299 -118 572 -247 862 -493 1103 -119 117
-231 186 -451 279 -22 9 -120 40 -199 62 -28 8 -51 18 -53 23 -2 6 41 21 94
33 467 112 867 345 1125 654 205 246 339 573 375 915 14 129 6 370 -16 497
-87 494 -357 820 -866 1045 -175 77 -429 156 -630 194 -44 9 -89 17 -100 20
-21 4 -165 26 -200 31 -11 1 -49 5 -85 10 -36 4 -77 8 -92 10 -15 2 -67 6
-115 10 -48 4 -110 9 -138 12 -27 3 -762 8 -1632 10 l-1583 4 -1 -23z m3091
-382 c302 -25 479 -57 665 -117 342 -112 539 -310 616 -619 16 -68 14 -55 23
-120 5 -30 10 -64 12 -75 23 -108 22 -568 -1 -684 -2 -12 -7 -43 -9 -66 -9
-77 -53 -258 -81 -330 -136 -363 -421 -590 -880 -702 -56 -13 -219 -42 -271
-48 -32 -4 -70 -8 -82 -10 -86 -14 -296 -20 -696 -20 l-460 0 -1 1390 c0 765
1 1396 4 1404 3 11 95 12 550 8 300 -3 575 -8 611 -11z"/>
</g>
</svg>
